<svg width="22" height="22" viewBox="0 0 22 22" fill="none" xmlns="http://www.w3.org/2000/svg">
<g clip-path="url(#clip0_22_1917)">
<path d="M0 10.9902C0 4.94023 4.95 -0.00976562 11 -0.00976562C17.05 -0.00976562 22 4.94023 22 10.9902C22 17.0402 17.05 21.9902 11 21.9902C4.95 21.9902 0 17.0402 0 10.9902ZM11.825 16.9715V11.1965H13.4062L13.6125 9.20273H11.825V8.24023C11.825 7.75898 11.8938 7.48398 12.65 7.48398H13.6125V5.49023H12.0312C10.1062 5.49023 9.4875 6.45273 9.4875 8.03398V9.20273H8.25V11.1965H9.41875V16.9715H11.825Z" fill="#1C1C1C"/>
</g>
<defs>
<clipPath id="clip0_22_1917">
<rect width="22" height="22" fill="white" transform="translate(0 -0.00976562)"/>
</clipPath>
</defs>
</svg>
