<svg width="22" height="22" viewBox="0 0 22 22" fill="none" xmlns="http://www.w3.org/2000/svg">
<path d="M0 10.9902C0 4.94023 4.95 -0.00976562 11 -0.00976562C17.05 -0.00976562 22 4.94023 22 10.9902C22 17.0402 17.05 21.9902 11 21.9902C4.95 21.9902 0 17.0402 0 10.9902ZM7.76875 9.20273H5.225V16.9715H7.76875V9.20273ZM7.975 6.79648C7.975 6.04023 7.425 5.49023 6.53125 5.49023C5.6375 5.49023 5.01875 6.04023 5.01875 6.79648C5.01875 7.55273 5.56875 8.17148 6.4625 8.17148C7.35625 8.17148 7.975 7.55273 7.975 6.79648ZM17.05 12.5027C17.05 10.0965 15.7438 8.99648 14.0938 8.99648C12.7188 8.99648 12.1 9.75273 11.7563 10.3027V9.20273H9.2125C9.2125 9.95898 9.2125 16.9715 9.2125 16.9715H11.7563V12.6402C11.7563 12.434 11.7563 12.159 11.825 12.0215C12.0312 11.5402 12.4438 11.059 13.1313 11.059C14.025 11.059 14.4375 11.7465 14.4375 12.8465V16.9715H16.9813C17.05 16.9715 17.05 12.5027 17.05 12.5027Z" fill="#1C1C1C"/>
</svg>
