<svg width="22" height="22" viewBox="0 0 22 22" fill="none" xmlns="http://www.w3.org/2000/svg">
<g clip-path="url(#clip0_22_1907)">
<path d="M0 10.9902C0 4.94023 4.95 -0.00976562 11 -0.00976562C17.05 -0.00976562 22 4.94023 22 10.9902C22 17.0402 17.05 21.9902 11 21.9902C4.95 21.9902 0 17.0402 0 10.9902ZM11.0688 8.92773V9.34023L10.6562 9.27148C9.14375 9.06523 7.8375 8.44648 6.7375 7.34648L6.1875 6.79648L6.05 7.20898C5.775 8.10273 5.9125 9.06523 6.53125 9.68398C6.875 10.0277 6.80625 10.0965 6.25625 9.89023C6.05 9.82148 5.9125 9.75273 5.84375 9.82148C5.775 9.89023 5.98125 10.6465 6.11875 10.9215C6.325 11.334 6.80625 11.7465 7.21875 11.9527L7.63125 12.159H7.15C6.66875 12.159 6.66875 12.159 6.7375 12.3652C6.94375 12.9152 7.5625 13.4652 8.31875 13.7402L8.8 13.9465L8.3875 14.2215C7.7 14.634 6.94375 14.8402 6.1875 14.8402C5.84375 14.8402 5.5 14.909 5.5 14.909C5.5 14.9777 6.53125 15.459 7.08125 15.6652C8.86875 16.2152 10.9313 15.9402 12.5125 15.0465C13.6125 14.359 14.7125 13.0527 15.2625 11.8152C15.5375 11.1277 15.8125 9.89023 15.8125 9.34023C15.8125 8.99648 15.8813 8.92773 16.2938 8.44648C16.5688 8.17148 16.8438 7.89648 16.8438 7.75898C16.9125 7.62148 16.9125 7.62148 16.5 7.75898C15.8125 8.03398 15.675 7.96523 16.0875 7.55273C16.3625 7.27773 16.6375 6.79648 16.6375 6.65898C16.6375 6.65898 16.5 6.65898 16.3625 6.72773C16.225 6.79648 15.8813 6.93398 15.6063 7.00273L15.1938 7.14023L14.85 6.86523C14.6438 6.72773 14.3 6.52148 14.1625 6.52148C13.75 6.38398 13.1313 6.38398 12.7188 6.59023C11.6188 6.86523 11 7.89648 11.0688 8.92773Z" fill="#1C1C1C"/>
</g>
<defs>
<clipPath id="clip0_22_1907">
<rect width="22" height="22" fill="white" transform="translate(0 -0.00976562)"/>
</clipPath>
</defs>
</svg>
