<svg width="22" height="22" viewBox="0 0 22 22" fill="none" xmlns="http://www.w3.org/2000/svg">
<path d="M0 10.9902C0 4.94023 4.95 -0.00976562 11 -0.00976562C17.05 -0.00976562 22 4.94023 22 10.9902C22 17.0402 17.05 21.9902 11 21.9902C4.95 21.9902 0 17.0402 0 10.9902ZM16.7063 8.17148C16.5688 7.69023 16.1562 7.27773 15.675 7.14023C14.7812 6.86523 11.2063 6.86523 11.2063 6.86523C11.2063 6.86523 7.63125 6.86523 6.7375 7.14023C6.25625 7.27773 5.84375 7.69023 5.70625 8.17148C5.5 9.06523 5.5 10.9902 5.5 10.9902C5.5 10.9902 5.5 12.9152 5.775 13.809C5.9125 14.2902 6.325 14.7027 6.80625 14.8402C7.7 15.1152 11.275 15.1152 11.275 15.1152C11.275 15.1152 14.85 15.1152 15.7438 14.8402C16.225 14.7027 16.6375 14.2902 16.775 13.809C17.05 12.9152 17.05 10.9902 17.05 10.9902C17.05 10.9902 16.9813 9.06523 16.7063 8.17148ZM10.175 12.9152V9.34023L13.0625 11.1277L10.175 12.9152Z" fill="#1C1C1C"/>
</svg>
