<svg width="28" height="29" viewBox="0 0 28 29" fill="none" xmlns="http://www.w3.org/2000/svg">
<g clip-path="url(#clip0_22_1434)">
<path d="M19.8333 3.11328H8.16671C4.94505 3.11328 2.33337 5.72495 2.33337 8.94661V20.6132C2.33337 23.8349 4.94505 26.4466 8.16671 26.4466H19.8333C23.055 26.4466 25.6667 23.8349 25.6667 20.6132V8.94661C25.6667 5.72495 23.055 3.11328 19.8333 3.11328Z" stroke="#1DCACA" stroke-width="3" stroke-linecap="round" stroke-linejoin="round"/>
<path d="M18.6667 14.0451C18.8107 15.0161 18.6448 16.0077 18.1927 16.879C17.7407 17.7502 17.0254 18.4567 16.1486 18.8981C15.2718 19.3394 14.2782 19.493 13.3091 19.337C12.34 19.1811 11.4447 18.7235 10.7507 18.0295C10.0566 17.3354 9.59901 16.4401 9.44306 15.471C9.28712 14.5019 9.44073 13.5083 9.88203 12.6315C10.3234 11.7548 11.0299 11.0395 11.9012 10.5874C12.7724 10.1353 13.7641 9.96949 14.735 10.1135C15.7254 10.2603 16.6423 10.7218 17.3503 11.4298C18.0583 12.1378 18.5198 13.0547 18.6667 14.0451Z" stroke="#1DCACA" stroke-width="3" stroke-linecap="round" stroke-linejoin="round"/>
<path d="M20.4167 8.36328H20.4283" stroke="#1DCACA" stroke-width="3" stroke-linecap="round" stroke-linejoin="round"/>
</g>
<defs>
<clipPath id="clip0_22_1434">
<rect width="28" height="28" fill="white" transform="translate(0 0.780029)"/>
</clipPath>
</defs>
</svg>
