<svg width="22" height="22" viewBox="0 0 22 22" fill="none" xmlns="http://www.w3.org/2000/svg">
<g clip-path="url(#clip0_22_1901)">
<path d="M0 10.9902C0 4.94023 4.95 -0.00976562 11 -0.00976562C17.05 -0.00976562 22 4.94023 22 10.9902C22 17.0402 17.05 21.9902 11 21.9902C4.95 21.9902 0 17.0402 0 10.9902ZM11.2063 5.49023C9.69375 5.49023 9.4875 5.49023 8.86875 5.49023C8.25 5.55898 7.8375 5.62773 7.49375 5.76523C7.15 5.90273 6.80625 6.10898 6.4625 6.45273C6.11875 6.79648 5.9125 7.07148 5.775 7.48398C5.6375 7.82773 5.5 8.24023 5.5 8.85898C5.5 9.47773 5.5 9.61523 5.5 11.1965C5.5 12.7777 5.5 12.984 5.56875 13.6027C5.56875 14.2215 5.70625 14.634 5.84375 14.9777C5.98125 15.3215 6.1875 15.6652 6.53125 16.009C6.80625 16.284 7.15 16.4902 7.5625 16.6965C7.90625 16.834 8.31875 16.9715 8.9375 16.9715C9.55625 16.9715 9.7625 17.0402 11.275 17.0402C12.8562 17.0402 13.0625 17.0402 13.6813 16.9715C14.3 16.9027 14.7125 16.834 15.0563 16.6965C15.4 16.559 15.7438 16.3527 16.0875 16.009C16.4312 15.6652 16.6375 15.3902 16.775 14.9777C16.9125 14.634 17.05 14.1527 17.05 13.6027C17.1187 12.984 17.1187 12.7777 17.1187 11.1965C17.1187 9.61523 17.1187 9.47773 17.05 8.85898C17.05 8.24023 16.9125 7.82773 16.775 7.48398C16.6375 7.07148 16.4312 6.79648 16.0875 6.45273C15.8125 6.17773 15.4688 5.97148 15.0563 5.76523C14.7125 5.62773 14.2313 5.55898 13.6813 5.49023C12.9938 5.49023 12.7875 5.49023 11.2063 5.49023ZM10.725 6.52148C10.8625 6.52148 11.0688 6.52148 11.2063 6.52148C12.7188 6.52148 12.925 6.52148 13.5438 6.52148C14.0938 6.52148 14.3688 6.65898 14.575 6.72773C14.85 6.86523 15.0563 7.00273 15.2625 7.14023C15.4688 7.27773 15.6063 7.48398 15.675 7.82773C15.7438 8.03398 15.8813 8.30898 15.8813 8.85898C15.95 9.47773 15.95 9.68398 15.95 11.1965C15.95 12.709 15.95 12.9152 15.8813 13.534C15.8813 14.084 15.7438 14.4277 15.675 14.634C15.6063 14.909 15.4688 15.0465 15.2625 15.3215C15.0563 15.5277 14.85 15.5965 14.575 15.734C14.3688 15.8027 14.0938 15.9402 13.5438 15.9402C12.925 15.9402 12.7188 16.009 11.2063 16.009C9.69375 16.009 9.4875 16.009 8.86875 15.9402C8.31875 15.9402 8.04375 15.8027 7.8375 15.734C7.5625 15.5965 7.35625 15.5277 7.15 15.3215C6.94375 15.1152 6.80625 14.909 6.7375 14.634C6.66875 14.4277 6.6 14.1527 6.53125 13.534C6.53125 12.9152 6.53125 12.7777 6.53125 11.1965C6.53125 9.68398 6.53125 9.47773 6.53125 8.85898C6.6 8.30898 6.66875 8.03398 6.7375 7.82773C6.875 7.55273 7.0125 7.34648 7.15 7.14023C7.2875 6.93398 7.5625 6.79648 7.8375 6.72773C8.04375 6.65898 8.31875 6.52148 8.86875 6.52148C9.41875 6.52148 9.625 6.52148 10.725 6.52148ZM14.3 7.48398C13.9563 7.48398 13.6125 7.75898 13.6125 8.17148C13.6125 8.58398 13.8875 8.85898 14.3 8.85898C14.7125 8.85898 14.9875 8.58398 14.9875 8.17148C14.9875 7.75898 14.6438 7.48398 14.3 7.48398ZM11.2063 8.24023C9.625 8.24023 8.25 9.54648 8.25 11.1965C8.25 12.8465 9.55625 14.1527 11.2063 14.1527C12.8562 14.1527 14.1625 12.8465 14.1625 11.1965C14.1625 9.54648 12.8562 8.24023 11.2063 8.24023ZM11.2063 9.27148C12.2375 9.27148 13.1313 10.0965 13.1313 11.1965C13.1313 12.2965 12.3063 13.1215 11.2063 13.1215C10.175 13.1215 9.28125 12.2965 9.28125 11.1965C9.28125 10.0965 10.175 9.27148 11.2063 9.27148Z" fill="#1C1C1C"/>
</g>
<defs>
<clipPath id="clip0_22_1901">
<rect width="22" height="22" fill="white" transform="translate(0 -0.00976562)"/>
</clipPath>
</defs>
</svg>
